Coordinates
version=1
nRows=16
nColumns=40
inDegrees=yes

Units are S.I. units (second, meters, Newtons, ...)
Angles are in degrees.

endheader
time	pelvis_tilt	pelvis_list	pelvis_rotation	pelvis_tx	pelvis_ty	pelvis_tz	hip_flexion_r	hip_adduction_r	hip_rotation_r	knee_angle_r	knee_angle_r_beta	ankle_angle_r	subtalar_angle_r	mtp_angle_r	hip_flexion_l	hip_adduction_l	hip_rotation_l	knee_angle_l	knee_angle_l_beta	ankle_angle_l	subtalar_angle_l	mtp_angle_l	lumbar_extension	lumbar_bending	lumbar_rotation	arm_flex_r	arm_add_r	arm_rot_r	elbow_flex_r	pro_sup_r	wrist_flex_r	wrist_dev_r	arm_flex_l	arm_add_l	arm_rot_l	elbow_flex_l	pro_sup_l	wrist_flex_l	wrist_dev_l
     52.96500000	     -6.43883105	     -3.63942092	     -7.74820828	      0.89621357	      0.92412418	      0.52648453	     19.72190642	      2.18587369	     -6.11084896	     23.53156491	     23.53156491	      9.81120031	     -6.09491900	     -1.72403812	     -0.51071644	     -6.82008785	    -12.70996453	     17.58078511	     17.58078511	     18.48856063	     -6.24363115	     -1.28093402	     -7.52033804	      6.65305395	      0.23499067	     -8.09228285	    -12.52869923	    -13.02890205	     26.54080438	     46.26327000	      0.00000000	      0.00000000	     26.09319664	    -15.42602694	    -16.39430807	     69.14738213	     48.31212565	      0.00000000	      0.00000000
     52.98285714	     -6.48304541	     -3.84038683	     -7.15561571	      0.89684475	      0.92453373	      0.53054586	     19.12666548	      2.47758859	     -6.86874485	     23.26535663	     23.26535663	     10.17641285	     -5.75886856	     -1.55035946	      0.20683304	     -7.65383130	    -12.23732806	     19.49611480	     19.49611480	     18.34907982	     -6.45612112	     -1.65627430	     -7.48748859	      6.80317600	      0.07297086	     -7.07185752	    -12.69563233	    -12.94005656	     26.57578603	     46.26779337	      0.00000000	      0.00000000	     25.08941177	    -15.01444627	    -16.17801256	     67.59707640	     48.25677496	      0.00000000	      0.00000000
     53.00071429	     -6.54012438	     -3.82137575	     -6.59451380	      0.89731042	      0.92482573	      0.53444685	     18.72398199	      2.52082170	     -7.59513123	     23.28331532	     23.28331532	     10.89806717	     -5.33263076	     -0.77486866	      1.00814410	     -8.27033402	    -11.89849393	     21.42621371	     21.42621371	     17.95074247	     -6.38233825	     -2.55461466	     -7.31382504	      6.71814084	      0.11105848	     -5.67864373	    -12.80451828	    -12.42323766	     25.25989917	     46.31500461	      0.00000000	      0.00000000	     24.69070393	    -14.38998289	    -15.70802337	     64.06977210	     48.13094561	      0.00000000	      0.00000000
     53.01857143	     -6.48834752	     -3.85967815	     -6.04978979	      0.89769439	      0.92512099	      0.53821498	     18.11420567	      2.67954664	     -8.11491368	     23.09954943	     23.09954943	     11.30199800	     -5.25775679	     -0.72362547	      1.93488001	     -8.86660430	    -11.11363661	     23.75914404	     23.75914404	     17.43484435	     -7.09050380	     -3.14011990	     -7.37958990	      6.67140845	      0.10341204	     -4.65212554	    -12.89451788	    -12.34371744	     25.35973477	     46.31847065	      0.00000000	      0.00000000	     23.44703818	    -13.74480055	    -15.36969289	     62.78372943	     48.06758085	      0.00000000	      0.00000000
     53.03642857	     -6.44548764	     -3.91982847	     -5.48014886	      0.89774383	      0.92515475	      0.54183039	     17.59484809	      2.84588922	     -8.67708633	     23.02365708	     23.02365708	     11.72666806	     -5.23434160	     -0.71920538	      3.20449386	     -9.51064234	    -10.15390340	     26.61958110	     26.61958110	     16.72064335	     -8.04870738	     -3.95752883	     -7.49489272	      6.65421048	      0.04420413	     -3.37146517	    -12.98486879	    -12.20952907	     25.35148255	     46.32523613	      0.00000000	      0.00000000	     22.24070312	    -13.26626560	    -14.98634344	     60.96146416	     47.99282534	      0.00000000	      0.00000000
     53.05428571	     -6.39687293	     -3.90031875	     -4.91875912	      0.89761037	      0.92501070	      0.54521863	     17.16608148	      2.92876065	     -9.14518645	     23.10118876	     23.10118876	     12.29128656	     -5.28146631	     -0.40999617	      4.59898111	     -9.93353571	     -8.85424936	     29.52746219	     29.52746219	     15.01468149	     -9.95400098	     -6.30700160	     -7.46243963	      6.54782156	      0.17124446	     -1.52391929	    -13.10293876	    -11.55010713	     23.50599754	     46.39938065	      0.00000000	      0.00000000	     21.96872338	    -12.74244012	    -13.90864337	     56.39179104	     47.80157059	      0.00000000	      0.00000000
     53.07214286	     -6.16106868	     -4.02063969	     -4.36912422	      0.89737718	      0.92477339	      0.54853979	     16.53360347	      3.17255239	     -9.54430623	     23.16414221	     23.16414221	     12.74745758	     -5.47633166	     -0.50335915	      6.13777626	    -10.57090845	     -7.70262636	     33.14418017	     33.14418017	     14.07244470	    -11.08913756	     -6.89086199	     -7.83435216	      6.54451611	      0.25553155	     -0.20016155	    -13.20717449	    -11.50869696	     23.83146825	     46.39904958	      0.00000000	      0.00000000	     20.60922911	    -12.13566917	    -13.56268601	     55.08327055	     47.73737266	      0.00000000	      0.00000000
     53.09000000	     -6.21943540	     -3.99706720	     -3.76125747	      0.89676613	      0.92391808	      0.55146554	     16.36478190	      3.28890754	     -9.77900269	     23.41814246	     23.41814246	     13.25208152	     -6.08624225	     -0.54502310	      8.23413584	    -10.86419610	     -6.08323317	     36.95072883	     36.95072883	     12.67144866	    -13.02766995	     -7.38384855	     -7.71987560	      6.44612222	     -0.15481351	      1.59667372	    -13.20725173	    -11.29693737	     23.58228971	     46.42266933	      0.00000000	      0.00000000	     19.34958814	    -11.88327888	    -12.79885334	     51.83924851	     47.60538129	      0.00000000	      0.00000000
     53.10785714	     -5.99251714	     -4.08314477	     -3.19498998	      0.89614978	      0.92320401	      0.55428010	     15.91277292	      3.50629840	     -9.96940885	     23.72773769	     23.72773769	     13.82111209	     -6.60469414	     -0.46118964	     10.11670468	    -11.21320044	     -4.57731570	     40.90360630	     40.90360630	     11.42914320	    -14.57995781	     -7.21728440	     -7.95381438	      6.45233406	      0.24675007	      3.48864847	    -13.35125295	    -10.94486643	     22.17946405	     46.51679664	      0.00000000	      0.00000000	     19.11020189	    -11.25700145	    -11.26181333	     47.28830566	     47.37217442	      0.00000000	      0.00000000
     53.12571429	     -5.87048521	     -4.17042514	     -2.59625550	      0.89538977	      0.92204806	      0.55687139	     15.65356146	      3.72596962	    -10.18463700	     24.15065357	     24.15065357	     14.34756419	     -7.38443624	     -0.54322993	     12.23119459	    -11.50510104	     -3.13769943	     44.90984896	     44.90984896	     10.24042707	    -16.00973924	     -6.59064876	     -8.06511929	      6.42173016	      0.06147715	      5.19505951	    -13.33855736	    -10.94109407	     22.62434168	     46.52403884	      0.00000000	      0.00000000	     17.56114987	    -10.86669784	    -10.72094165	     45.18179985	     47.27267595	      0.00000000	      0.00000000
     53.14357143	     -5.57331800	     -4.24612375	     -2.01771142	      0.89445931	      0.92093885	      0.55925481	     15.34083722	      3.93364327	    -10.16356554	     24.79790074	     24.79790074	     14.99533319	     -8.24245445	     -0.40082760	     14.30353549	    -11.62475163	     -1.58855240	     49.10509099	     49.10509099	     10.44802703	    -16.60498670	     -2.34411514	     -8.40816832	      6.38130772	      0.28765785	      7.07139550	    -13.49191948	    -10.90650461	     21.82725865	     46.62073510	      0.00000000	      0.00000000	     17.18046376	    -10.33663723	     -8.98975062	     40.62960767	     47.01461288	      0.00000000	      0.00000000
     53.16142857	     -5.35477790	     -4.35808414	     -1.45278870	      0.89347754	      0.91957318	      0.56146818	     15.12049336	      4.19657738	    -10.15211247	     25.43157312	     25.43157312	     15.59727192	     -9.18630630	     -0.22088194	     16.39167883	    -11.71624435	     -0.17231317	     52.94967086	     52.94967086	     10.65359832	    -17.29439966	      1.68575941	     -8.66029660	      6.37116965	      0.38065820	      8.89825597	    -13.51357507	    -11.14552799	     22.09543746	     46.68515774	      0.00000000	      0.00000000	     16.00823517	     -9.91699544	     -7.71815613	     37.62678264	     46.80636511	      0.00000000	      0.00000000
     53.17928571	     -5.13110368	     -4.44181351	     -0.88919010	      0.89238833	      0.91798210	      0.56355350	     15.03574779	      4.39698451	    -10.17031856	     26.31343003	     26.31343003	     16.26453713	    -10.14267591	     -0.04567521	     18.42782601	    -11.79703155	      1.01203888	     56.44262596	     56.44262596	     11.06247758	    -17.82196583	      5.85130717	     -8.90711408	      6.29484357	      0.45846066	     10.72845775	    -13.53980778	    -11.43066425	     22.53735549	     46.73957864	      0.00000000	      0.00000000	     14.74672302	     -9.51422953	     -6.45609460	     34.89044068	     46.59552584	      0.00000000	      0.00000000
     53.19714286	     -4.86185991	     -4.52505875	     -0.30628077	      0.89129734	      0.91641097	      0.56544039	     14.92099355	      4.60023760	    -10.15755199	     27.20895171	     27.20895171	     16.77893611	    -11.20604401	      0.03105223	     20.22000691	    -11.92472307	      1.94946663	     59.25741456	     59.25741456	     10.92775150	    -18.45529908	      7.93673219	     -9.16156737	      6.23507593	      0.28523606	     12.68043533	    -13.44011954	    -11.56355166	     23.43332503	     46.73877063	      0.00000000	      0.00000000	     13.07176726	     -9.21723229	     -5.77741972	     32.94292910	     46.46747440	      0.00000000	      0.00000000
     53.21500000	     -4.68221451	     -4.62462685	      0.26323834	      0.89006719	      0.91475339	      0.56715972	     14.90597427	      4.82280723	    -10.15513385	     28.09211316	     28.09211316	     17.49271903	    -12.14807404	      0.45832293	     22.13574253	    -12.05309433	      2.77733002	     61.78519354	     61.78519354	     12.13625363	    -18.74126328	     12.93106650	     -9.41100416	      6.11287485	      0.46243371	     14.46183965	    -13.51072944	    -11.75237114	     24.15384427	     46.75138812	      0.00000000	      0.00000000	     11.78795856	     -8.77500097	     -4.36223374	     30.46784896	     46.23043637	      0.00000000	      0.00000000
     53.23285714	     -4.48299686	     -4.76527649	      0.82650784	      0.88884534	      0.91312847	      0.56879264	     14.84842407	      5.05817966	    -10.29030365	     28.92181619	     28.92181619	     17.99434933	    -12.95255286	      0.37748771	     23.75192979	    -12.42520189	      3.24008926	     63.40421099	     63.40421099	     12.16369283	    -19.07228861	     13.54721868	     -9.61428465	      6.06247919	      0.67108544	     16.31859909	    -13.59224281	    -11.81700327	     25.15211105	     46.73088821	      0.00000000	      0.00000000	     10.03668824	     -8.33310647	     -4.03569545	     29.32724026	     46.15168202	      0.00000000	      0.00000000
